<svg width="16" height="16" viewBox="0 0 16 16" xmlns="http://www.w3.org/2000/svg">
  <defs>
    <linearGradient id="miniGhost" x1="0%" y1="0%" x2="100%" y2="100%">
      <stop offset="0%" style="stop-color:#667eea;stop-opacity:1" />
      <stop offset="100%" style="stop-color:#764ba2;stop-opacity:1" />
    </linearGradient>
  </defs>
  
  <!-- Ghost Body -->
  <path d="M 8 2 
           C 5.5 2, 3.5 4, 3.5 6.5
           L 3.5 11
           C 3.5 11.5, 3.7 12, 4 12.2
           L 4.5 12.5
           C 4.7 12.7, 5 12.7, 5.2 12.5
           L 5.5 12.2
           C 5.7 12, 6 12, 6.2 12.2
           L 6.5 12.5
           C 6.7 12.7, 7 12.7, 7.2 12.5
           L 7.5 12.2
           C 7.7 12, 8 12, 8.2 12.2
           L 8.5 12.5
           C 8.7 12.7, 9 12.7, 9.2 12.5
           L 9.5 12.2
           C 9.7 12, 10 12, 10.2 12.2
           L 10.5 12.5
           C 10.7 12.7, 11 12.7, 11.2 12.5
           L 11.5 12.2
           C 12 12, 12.5 11.5, 12.5 11
           L 12.5 6.5
           C 12.5 4, 10.5 2, 8 2 Z" 
        fill="url(#miniGhost)"/>
  
  <!-- Eyes -->
  <circle cx="6.5" cy="6" r="0.8" fill="#2d3748"/>
  <circle cx="9.5" cy="6" r="0.8" fill="#2d3748"/>
  
  <!-- Eye highlights -->
  <circle cx="6.7" cy="5.8" r="0.3" fill="#ffffff"/>
  <circle cx="9.7" cy="5.8" r="0.3" fill="#ffffff"/>
  
  <!-- Mouth -->
  <ellipse cx="8" cy="8.5" rx="1" ry="0.8" fill="#2d3748"/>
  <ellipse cx="8" cy="8.3" rx="0.7" ry="0.5" fill="url(#miniGhost)"/>
</svg>
